<mxfile host="Electron" modified="2024-06-25T18:48:28.584Z" agent="Mozilla/5.0 (Windows NT 10.0; Win64; x64) AppleWebKit/537.36 (KHTML, like Gecko) draw.io/24.5.3 Chrome/124.0.6367.207 Electron/30.0.6 Safari/537.36" etag="GvmWHtCo29bKwGOrGKEy" version="24.5.3" type="device">
  <diagram id="C5RBs43oDa-KdzZeNtuy" name="Page-1">
    <mxGraphModel dx="1434" dy="836" grid="1" gridSize="10" guides="1" tooltips="1" connect="1" arrows="1" fold="1" page="1" pageScale="1" pageWidth="827" pageHeight="1169" math="0" shadow="0">
      <root>
        <mxCell id="WIyWlLk6GJQsqaUBKTNV-0" />
        <mxCell id="WIyWlLk6GJQsqaUBKTNV-1" parent="WIyWlLk6GJQsqaUBKTNV-0" />
        <mxCell id="A3cVW_mfmKxSCAxE8DWt-32" value="Engine" style="shape=folder;fontStyle=1;spacingTop=10;tabWidth=40;tabHeight=14;tabPosition=left;html=1;whiteSpace=wrap;align=center;verticalAlign=top;" vertex="1" parent="WIyWlLk6GJQsqaUBKTNV-1">
          <mxGeometry x="10" y="270" width="690" height="490" as="geometry" />
        </mxCell>
        <mxCell id="A3cVW_mfmKxSCAxE8DWt-10" value="core" style="shape=folder;fontStyle=1;spacingTop=10;tabWidth=40;tabHeight=14;tabPosition=left;html=1;whiteSpace=wrap;verticalAlign=top;align=center;" vertex="1" parent="WIyWlLk6GJQsqaUBKTNV-1">
          <mxGeometry x="40" y="630" width="330" height="110" as="geometry" />
        </mxCell>
        <mxCell id="A3cVW_mfmKxSCAxE8DWt-0" value="yage::input" style="shape=folder;fontStyle=1;spacingTop=10;tabWidth=40;tabHeight=14;tabPosition=left;html=1;whiteSpace=wrap;" vertex="1" parent="WIyWlLk6GJQsqaUBKTNV-1">
          <mxGeometry x="270" y="680" width="80" height="50" as="geometry" />
        </mxCell>
        <mxCell id="A3cVW_mfmKxSCAxE8DWt-1" value="yage::image" style="shape=folder;fontStyle=1;spacingTop=10;tabWidth=40;tabHeight=14;tabPosition=left;html=1;whiteSpace=wrap;" vertex="1" parent="WIyWlLk6GJQsqaUBKTNV-1">
          <mxGeometry x="240" y="534.5" width="80" height="50" as="geometry" />
        </mxCell>
        <mxCell id="A3cVW_mfmKxSCAxE8DWt-29" style="edgeStyle=orthogonalEdgeStyle;rounded=0;orthogonalLoop=1;jettySize=auto;html=1;exitX=0;exitY=0;exitDx=0;exitDy=23;exitPerimeter=0;dashed=1;startArrow=open;startFill=0;endArrow=none;endFill=0;" edge="1" parent="WIyWlLk6GJQsqaUBKTNV-1" source="A3cVW_mfmKxSCAxE8DWt-2">
          <mxGeometry relative="1" as="geometry">
            <mxPoint x="510" y="713" as="targetPoint" />
          </mxGeometry>
        </mxCell>
        <mxCell id="A3cVW_mfmKxSCAxE8DWt-2" value="yage::utils" style="shape=folder;fontStyle=1;spacingTop=10;tabWidth=40;tabHeight=14;tabPosition=left;html=1;whiteSpace=wrap;" vertex="1" parent="WIyWlLk6GJQsqaUBKTNV-1">
          <mxGeometry x="550" y="690" width="80" height="50" as="geometry" />
        </mxCell>
        <mxCell id="A3cVW_mfmKxSCAxE8DWt-3" value="yage::gl3d" style="shape=folder;fontStyle=1;spacingTop=10;tabWidth=40;tabHeight=14;tabPosition=left;html=1;whiteSpace=wrap;" vertex="1" parent="WIyWlLk6GJQsqaUBKTNV-1">
          <mxGeometry x="40" y="430" width="80" height="50" as="geometry" />
        </mxCell>
        <mxCell id="A3cVW_mfmKxSCAxE8DWt-4" value="yage::physics3d" style="shape=folder;fontStyle=1;spacingTop=10;tabWidth=40;tabHeight=14;tabPosition=left;html=1;whiteSpace=wrap;" vertex="1" parent="WIyWlLk6GJQsqaUBKTNV-1">
          <mxGeometry x="320" y="430" width="110" height="50" as="geometry" />
        </mxCell>
        <mxCell id="A3cVW_mfmKxSCAxE8DWt-7" value="yage::platform" style="shape=folder;fontStyle=1;spacingTop=10;tabWidth=40;tabHeight=14;tabPosition=left;html=1;whiteSpace=wrap;" vertex="1" parent="WIyWlLk6GJQsqaUBKTNV-1">
          <mxGeometry x="50" y="680" width="100" height="50" as="geometry" />
        </mxCell>
        <mxCell id="A3cVW_mfmKxSCAxE8DWt-8" value="yage::gl" style="shape=folder;fontStyle=1;spacingTop=10;tabWidth=40;tabHeight=14;tabPosition=left;html=1;whiteSpace=wrap;" vertex="1" parent="WIyWlLk6GJQsqaUBKTNV-1">
          <mxGeometry x="170" y="680" width="80" height="50" as="geometry" />
        </mxCell>
        <mxCell id="A3cVW_mfmKxSCAxE8DWt-9" value="yage::res" style="shape=folder;fontStyle=1;spacingTop=10;tabWidth=40;tabHeight=14;tabPosition=left;html=1;whiteSpace=wrap;" vertex="1" parent="WIyWlLk6GJQsqaUBKTNV-1">
          <mxGeometry x="400" y="630" width="80" height="50" as="geometry" />
        </mxCell>
        <mxCell id="A3cVW_mfmKxSCAxE8DWt-11" value="yage::font" style="shape=folder;fontStyle=1;spacingTop=10;tabWidth=40;tabHeight=14;tabPosition=left;html=1;whiteSpace=wrap;" vertex="1" parent="WIyWlLk6GJQsqaUBKTNV-1">
          <mxGeometry x="135" y="534.5" width="80" height="50" as="geometry" />
        </mxCell>
        <mxCell id="A3cVW_mfmKxSCAxE8DWt-12" value="yage::gui" style="shape=folder;fontStyle=1;spacingTop=10;tabWidth=40;tabHeight=14;tabPosition=left;html=1;whiteSpace=wrap;" vertex="1" parent="WIyWlLk6GJQsqaUBKTNV-1">
          <mxGeometry x="200" y="430" width="80" height="50" as="geometry" />
        </mxCell>
        <mxCell id="A3cVW_mfmKxSCAxE8DWt-13" value="yage::runtime" style="shape=folder;fontStyle=1;spacingTop=10;tabWidth=40;tabHeight=14;tabPosition=left;html=1;whiteSpace=wrap;" vertex="1" parent="WIyWlLk6GJQsqaUBKTNV-1">
          <mxGeometry x="40" y="320" width="90" height="50" as="geometry" />
        </mxCell>
        <mxCell id="A3cVW_mfmKxSCAxE8DWt-14" value="Application" style="shape=folder;fontStyle=1;spacingTop=10;tabWidth=40;tabHeight=14;tabPosition=left;html=1;whiteSpace=wrap;" vertex="1" parent="WIyWlLk6GJQsqaUBKTNV-1">
          <mxGeometry x="60" y="150" width="90" height="50" as="geometry" />
        </mxCell>
        <mxCell id="A3cVW_mfmKxSCAxE8DWt-28" style="edgeStyle=orthogonalEdgeStyle;rounded=0;orthogonalLoop=1;jettySize=auto;html=1;exitX=0;exitY=0;exitDx=0;exitDy=23;exitPerimeter=0;startArrow=open;startFill=0;dashed=1;endArrow=none;endFill=0;" edge="1" parent="WIyWlLk6GJQsqaUBKTNV-1" source="A3cVW_mfmKxSCAxE8DWt-15">
          <mxGeometry relative="1" as="geometry">
            <mxPoint x="510" y="633" as="targetPoint" />
          </mxGeometry>
        </mxCell>
        <mxCell id="A3cVW_mfmKxSCAxE8DWt-15" value="yage::math" style="shape=folder;fontStyle=1;spacingTop=10;tabWidth=40;tabHeight=14;tabPosition=left;html=1;whiteSpace=wrap;" vertex="1" parent="WIyWlLk6GJQsqaUBKTNV-1">
          <mxGeometry x="550" y="610" width="80" height="50" as="geometry" />
        </mxCell>
        <mxCell id="A3cVW_mfmKxSCAxE8DWt-17" style="edgeStyle=orthogonalEdgeStyle;rounded=0;orthogonalLoop=1;jettySize=auto;html=1;exitX=0;exitY=0;exitDx=75;exitDy=14;exitPerimeter=0;entryX=0;entryY=0;entryDx=90;entryDy=23;entryPerimeter=0;dashed=1;endArrow=none;endFill=0;startArrow=open;startFill=0;" edge="1" parent="WIyWlLk6GJQsqaUBKTNV-1" source="A3cVW_mfmKxSCAxE8DWt-4" target="A3cVW_mfmKxSCAxE8DWt-13">
          <mxGeometry relative="1" as="geometry">
            <Array as="points">
              <mxPoint x="395" y="343" />
            </Array>
          </mxGeometry>
        </mxCell>
        <mxCell id="A3cVW_mfmKxSCAxE8DWt-18" style="edgeStyle=orthogonalEdgeStyle;rounded=0;orthogonalLoop=1;jettySize=auto;html=1;exitX=0;exitY=0;exitDx=60;exitDy=14;exitPerimeter=0;entryX=0;entryY=0;entryDx=90;entryDy=23;entryPerimeter=0;dashed=1;endArrow=none;endFill=0;startArrow=open;startFill=0;" edge="1" parent="WIyWlLk6GJQsqaUBKTNV-1" source="A3cVW_mfmKxSCAxE8DWt-3" target="A3cVW_mfmKxSCAxE8DWt-13">
          <mxGeometry relative="1" as="geometry">
            <Array as="points">
              <mxPoint x="100" y="400" />
              <mxPoint x="160" y="400" />
              <mxPoint x="160" y="343" />
            </Array>
          </mxGeometry>
        </mxCell>
        <mxCell id="A3cVW_mfmKxSCAxE8DWt-19" style="edgeStyle=orthogonalEdgeStyle;rounded=0;orthogonalLoop=1;jettySize=auto;html=1;exitX=0;exitY=0;exitDx=60;exitDy=14;exitPerimeter=0;entryX=0;entryY=0;entryDx=90;entryDy=23;entryPerimeter=0;dashed=1;startArrow=open;startFill=0;endArrow=none;endFill=0;" edge="1" parent="WIyWlLk6GJQsqaUBKTNV-1" source="A3cVW_mfmKxSCAxE8DWt-12" target="A3cVW_mfmKxSCAxE8DWt-13">
          <mxGeometry relative="1" as="geometry">
            <Array as="points">
              <mxPoint x="260" y="343" />
            </Array>
          </mxGeometry>
        </mxCell>
        <mxCell id="A3cVW_mfmKxSCAxE8DWt-20" style="edgeStyle=orthogonalEdgeStyle;rounded=0;orthogonalLoop=1;jettySize=auto;html=1;exitX=0.5;exitY=1;exitDx=0;exitDy=0;exitPerimeter=0;dashed=1;endArrow=open;endFill=0;entryX=0;entryY=0;entryDx=60;entryDy=14;entryPerimeter=0;" edge="1" parent="WIyWlLk6GJQsqaUBKTNV-1" source="A3cVW_mfmKxSCAxE8DWt-12" target="A3cVW_mfmKxSCAxE8DWt-11">
          <mxGeometry relative="1" as="geometry">
            <mxPoint x="195" y="549" as="targetPoint" />
            <Array as="points">
              <mxPoint x="240" y="510" />
              <mxPoint x="195" y="510" />
            </Array>
          </mxGeometry>
        </mxCell>
        <mxCell id="A3cVW_mfmKxSCAxE8DWt-21" style="edgeStyle=orthogonalEdgeStyle;rounded=0;orthogonalLoop=1;jettySize=auto;html=1;exitX=0.5;exitY=1;exitDx=0;exitDy=0;exitPerimeter=0;entryX=0;entryY=0;entryDx=60;entryDy=14;entryPerimeter=0;dashed=1;endArrow=open;endFill=0;" edge="1" parent="WIyWlLk6GJQsqaUBKTNV-1" source="A3cVW_mfmKxSCAxE8DWt-12" target="A3cVW_mfmKxSCAxE8DWt-1">
          <mxGeometry relative="1" as="geometry">
            <Array as="points">
              <mxPoint x="240" y="510" />
              <mxPoint x="300" y="510" />
            </Array>
          </mxGeometry>
        </mxCell>
        <mxCell id="A3cVW_mfmKxSCAxE8DWt-24" style="edgeStyle=orthogonalEdgeStyle;rounded=0;orthogonalLoop=1;jettySize=auto;html=1;dashed=1;endArrow=open;endFill=0;exitX=0.75;exitY=1;exitDx=0;exitDy=0;exitPerimeter=0;" edge="1" parent="WIyWlLk6GJQsqaUBKTNV-1" source="A3cVW_mfmKxSCAxE8DWt-3">
          <mxGeometry relative="1" as="geometry">
            <mxPoint x="40" y="530" as="sourcePoint" />
            <mxPoint x="100" y="644" as="targetPoint" />
            <Array as="points" />
          </mxGeometry>
        </mxCell>
        <mxCell id="A3cVW_mfmKxSCAxE8DWt-25" style="edgeStyle=orthogonalEdgeStyle;rounded=0;orthogonalLoop=1;jettySize=auto;html=1;exitX=0.5;exitY=1;exitDx=0;exitDy=0;exitPerimeter=0;entryX=0.409;entryY=0.091;entryDx=0;entryDy=0;entryPerimeter=0;dashed=1;endArrow=open;endFill=0;" edge="1" parent="WIyWlLk6GJQsqaUBKTNV-1" source="A3cVW_mfmKxSCAxE8DWt-11" target="A3cVW_mfmKxSCAxE8DWt-10">
          <mxGeometry relative="1" as="geometry" />
        </mxCell>
        <mxCell id="A3cVW_mfmKxSCAxE8DWt-26" style="edgeStyle=orthogonalEdgeStyle;rounded=0;orthogonalLoop=1;jettySize=auto;html=1;exitX=0.5;exitY=1;exitDx=0;exitDy=0;exitPerimeter=0;entryX=0.727;entryY=0.118;entryDx=0;entryDy=0;entryPerimeter=0;dashed=1;endArrow=open;endFill=0;" edge="1" parent="WIyWlLk6GJQsqaUBKTNV-1" source="A3cVW_mfmKxSCAxE8DWt-1" target="A3cVW_mfmKxSCAxE8DWt-10">
          <mxGeometry relative="1" as="geometry" />
        </mxCell>
        <mxCell id="A3cVW_mfmKxSCAxE8DWt-27" style="edgeStyle=orthogonalEdgeStyle;rounded=0;orthogonalLoop=1;jettySize=auto;html=1;exitX=0.5;exitY=1;exitDx=0;exitDy=0;exitPerimeter=0;entryX=0.918;entryY=0.082;entryDx=0;entryDy=0;entryPerimeter=0;dashed=1;endArrow=open;endFill=0;" edge="1" parent="WIyWlLk6GJQsqaUBKTNV-1" source="A3cVW_mfmKxSCAxE8DWt-4" target="A3cVW_mfmKxSCAxE8DWt-10">
          <mxGeometry relative="1" as="geometry" />
        </mxCell>
        <mxCell id="A3cVW_mfmKxSCAxE8DWt-30" style="edgeStyle=orthogonalEdgeStyle;rounded=0;orthogonalLoop=1;jettySize=auto;html=1;exitX=0.75;exitY=1;exitDx=0;exitDy=0;exitPerimeter=0;entryX=0;entryY=0;entryDx=60;entryDy=14;entryPerimeter=0;dashed=1;endArrow=open;endFill=0;" edge="1" parent="WIyWlLk6GJQsqaUBKTNV-1" source="A3cVW_mfmKxSCAxE8DWt-11" target="A3cVW_mfmKxSCAxE8DWt-9">
          <mxGeometry relative="1" as="geometry">
            <Array as="points">
              <mxPoint x="195" y="610" />
              <mxPoint x="460" y="610" />
            </Array>
          </mxGeometry>
        </mxCell>
        <mxCell id="A3cVW_mfmKxSCAxE8DWt-31" style="edgeStyle=orthogonalEdgeStyle;rounded=0;orthogonalLoop=1;jettySize=auto;html=1;exitX=0;exitY=0;exitDx=80;exitDy=50;exitPerimeter=0;entryX=0;entryY=0;entryDx=60;entryDy=14;entryPerimeter=0;endArrow=open;endFill=0;dashed=1;" edge="1" parent="WIyWlLk6GJQsqaUBKTNV-1" source="A3cVW_mfmKxSCAxE8DWt-3" target="A3cVW_mfmKxSCAxE8DWt-9">
          <mxGeometry relative="1" as="geometry">
            <Array as="points">
              <mxPoint x="120" y="610" />
              <mxPoint x="460" y="610" />
            </Array>
          </mxGeometry>
        </mxCell>
        <mxCell id="A3cVW_mfmKxSCAxE8DWt-33" style="edgeStyle=orthogonalEdgeStyle;rounded=0;orthogonalLoop=1;jettySize=auto;html=1;exitX=0.5;exitY=1;exitDx=0;exitDy=0;exitPerimeter=0;entryX=0;entryY=0;entryDx=65;entryDy=14;entryPerimeter=0;endArrow=open;endFill=0;dashed=1;" edge="1" parent="WIyWlLk6GJQsqaUBKTNV-1" source="A3cVW_mfmKxSCAxE8DWt-14" target="A3cVW_mfmKxSCAxE8DWt-13">
          <mxGeometry relative="1" as="geometry" />
        </mxCell>
      </root>
    </mxGraphModel>
  </diagram>
</mxfile>
